<svg xmlns="http://www.w3.org/2000/svg" xmlns:xlink="http://www.w3.org/1999/xlink" viewBox="0 0 1492.7 264.71"><defs><style>.cls-1{opacity:0.8;}.cls-2{fill:url(#linear-gradient);}.cls-3{fill:url(#linear-gradient-3);}.cls-4{fill:#569789;}.cls-5{fill:#1d4357;}</style><linearGradient id="linear-gradient" x1="7362.54" y1="-4360.75" x2="7362.54" y2="-4180.05" gradientTransform="translate(4360.75 7494.9) rotate(-90)" gradientUnits="userSpaceOnUse"><stop offset="0" stop-color="#265873"/><stop offset="1" stop-color="#569789" stop-opacity="0.6"/></linearGradient><linearGradient id="linear-gradient-3" x1="-1768.86" y1="-4360.75" x2="-1768.86" y2="-4180.05" gradientTransform="matrix(0, 1, 1, 0, 4360.75, 1901.22)" xlink:href="#linear-gradient"/></defs><title>logo-dark-icon</title><g id="Layer_2" data-name="Layer 2"><g id="Layer_1-2" data-name="Layer 1"><g class="cls-1"><polygon class="cls-2" points="180.71 193.37 0 0 22.46 132.35 0 264.71 180.71 193.37"/><polygon class="cls-2" points="180.71 132.35 0 0 22.46 132.35 0 264.71 180.71 132.35"/><polygon class="cls-3" points="180.71 71.33 0 264.71 22.46 132.35 0 0 180.71 71.33"/></g><polygon class="cls-4" points="1188.69 196.97 1090.18 46.27 1084.96 37.79 1079.74 46.27 983.84 196.97 977.31 206.76 989.06 206.76 1020.37 206.76 1023.63 206.76 1025.59 203.49 1086.26 106.94 1149.55 203.49 1151.5 206.76 1154.76 206.76 1183.47 206.76 1195.21 206.76 1188.69 196.97"/><path class="cls-5" d="M384.29,155.87l19.57,29.36-2.61,2c-1.31-1.3-2.61-2.6-4.57-2.6a31.4,31.4,0,0,0-10.44,5.21,124.47,124.47,0,0,1-30,13.7,84.58,84.58,0,0,1-28.7,3.27,91.15,91.15,0,0,1-54.8-15.66,60.08,60.08,0,0,1-19.57-22.83A67,67,0,0,1,244,133.69a71.39,71.39,0,0,1,15-44.36c15-18.92,37.84-28.71,67.85-28.71,9.78,0,19.57.65,28.7,3.26a124.85,124.85,0,0,1,30,13.7c3.26,2,6.53,3.92,10.44,4.57,2,0,3.26-1.31,4.57-2.61l2.61,2-19.58,29.35-2.61-1.3v-2.61c0-2-1.3-3.91-2.61-5.87a46.19,46.19,0,0,0-9.13-6.53C357.54,88,343.84,84.11,330.79,84.11A59.15,59.15,0,0,0,292.3,96.5c-20.23,17.62-22.84,48.28-5.22,68.5,1.3,2,3.26,3.27,5.22,5.22a59.21,59.21,0,0,0,38.49,12.4,72.63,72.63,0,0,0,38.49-10.44,46.14,46.14,0,0,0,9.13-6.52,8.28,8.28,0,0,0,2.61-5.88v-2.61Z"/><path class="cls-5" d="M568.26,74.32v78.94c.65,11.74-2,23.49-8.48,33.27-9.79,13.05-30.66,20.23-61.32,20.23-22.19,0-39.8-3.92-51.54-11.09a33.27,33.27,0,0,1-14.36-17,86.07,86.07,0,0,1-3.91-25.44V74.32a9.37,9.37,0,0,0-1.31-4.57,8.06,8.06,0,0,0-5.21-2.61V63.23h44.36v3.26c-2,.65-3.92,1.31-5.22,2.61a7.39,7.39,0,0,0-2,5.22v70.46c0,5.87,0,12.39,1.31,18.27a17.93,17.93,0,0,0,5.22,9.78c6.52,7.18,17.61,10.44,33.92,10.44s27.4-3.26,33.92-10.44c2.61-2.61,3.92-5.87,5.22-9.78,1.31-5.88,1.31-11.75,1.31-18.27V74.32a9.37,9.37,0,0,0-1.31-4.57,8.06,8.06,0,0,0-5.22-2.61V63.23h41.76v3.26c-2,.65-3.92,1.31-5.22,2.61A7.39,7.39,0,0,0,568.26,74.32Z"/><path class="cls-5" d="M722.88,130.43c15,4.56,24.79,18.26,24.14,33.27a35.64,35.64,0,0,1-13.7,30A38.08,38.08,0,0,1,717,201.54a91.28,91.28,0,0,1-22.84,2.61H597v-3.27c1.95-.65,3.91-1.3,5.22-2.6s1.3-3.27,1.3-4.57V74.32a9.48,9.48,0,0,0-1.3-4.57c-1.31-1.3-3.27-2.61-5.22-2.61V63.23h95.9a126.89,126.89,0,0,1,22.18,2c5.22,1.3,10.44,3.26,15,7.17a34.24,34.24,0,0,1,12.39,28.06A30.43,30.43,0,0,1,722.88,130.43Zm-88.07-11.09H689a30.56,30.56,0,0,0,17-3.27c3.91-3.26,5.87-7.83,5.22-12.39.65-4.57-1.31-9.79-5.22-12.4-5.22-3.26-11.09-3.91-17.62-3.91H634.15l.66,32Zm0,61.32H687a38.67,38.67,0,0,0,20.87-3.91A18.83,18.83,0,0,0,711.14,150a7.85,7.85,0,0,0-3.27-3.26A38.58,38.58,0,0,0,687,142.82H634.81v37.84Z"/><path class="cls-5" d="M774.42,193.71V74.32a9.37,9.37,0,0,0-1.31-4.57,8.06,8.06,0,0,0-5.22-2.61V63.23h44.37v3.26A8.06,8.06,0,0,0,807,69.1c-1.31,1.31-2,3.26-1.31,4.57V193.06c0,1.95.66,3.26,1.31,5.22,1.3,1.3,3.26,1.95,5.22,2.6v3.27H767.89v-3.27c2-.65,3.92-1.3,5.22-2.6A9.37,9.37,0,0,0,774.42,193.71Z"/><path class="cls-5" d="M974.05,155.87l19.57,29.36-2.61,2c-1.3-1.3-2.61-2.6-4.56-2.6A31.21,31.21,0,0,0,976,189.79a124.64,124.64,0,0,1-30,13.7,84.63,84.63,0,0,1-28.71,3.27,91.15,91.15,0,0,1-54.8-15.66,60.16,60.16,0,0,1-19.57-22.83c-5.87-10.44-8.48-22.19-8.48-34.58a71.45,71.45,0,0,1,15-44.36c14.36-18.92,37.19-28.71,67.85-28.71,9.79,0,19.57.65,28.71,3.26a137.67,137.67,0,0,1,30,13.7c3.26,2,6.52,3.92,10.44,4.57,1.95,0,3.26-1.31,4.56-2.61l2.61,2-19.57,29.35-2.61-1.95v-2.61c0-2-1.3-3.92-2.61-5.87a46.48,46.48,0,0,0-9.13-6.53C948,87.37,934.25,83.45,921.21,83.45a55.81,55.81,0,0,0-38.49,12.4c-20.23,17.61-22.84,48.28-5.22,68.5,1.3,2,3.26,3.26,5.22,5.22A59.21,59.21,0,0,0,921.21,182a72.72,72.72,0,0,0,38.49-10.44,46.48,46.48,0,0,0,9.13-6.53,8.24,8.24,0,0,0,2.61-5.87v-2.61Z"/><path class="cls-5" d="M1314.6,75.63l-17,33.27-2.61-2v-2c-.65-3.26-3.26-5.87-5.87-7.83a77.74,77.74,0,0,0-43.06-13,67.24,67.24,0,0,0-19.57,2.61,24.48,24.48,0,0,0-9.79,5.87,12.87,12.87,0,0,0-3.91,9.13c0,5.22,3.91,9.79,9.78,11.09,7.18,1.31,14.36,2.61,21.53,3.26l16.31,2a146.54,146.54,0,0,1,23.49,3.92c5.87,2,11.09,3.91,15.66,7.82a36.08,36.08,0,0,1,11.09,13,40.86,40.86,0,0,1,3.91,17.62,38.17,38.17,0,0,1-9.78,26.09c-7.18,7.83-17,13.05-26.75,15.66a113.51,113.51,0,0,1-29.36,3.91,128,128,0,0,1-55.45-13c-2-1.31-4.57-2-7.18-2.61-1.31.65-3.26,1.3-4.57,2l-3.26-1.3,15.66-34.58,3.26,1.31v1.3a11.14,11.14,0,0,0,4.57,8.48,57.11,57.11,0,0,0,20.87,10.44c8.48,2.61,17.62,4.57,26.75,4.57,7.83,0,16.31-1.31,23.49-4.57a18,18,0,0,0,8.48-7.18,15.54,15.54,0,0,0,3.26-9.13,10.37,10.37,0,0,0-7.83-9.78,123.93,123.93,0,0,0-21.53-3.92l-15.65-2c-7.83-.65-15-2-22.84-3.26-4.56-1.3-9.13-2.61-13-5.22a38,38,0,0,1-15-13.7,33.55,33.55,0,0,1-4.57-19.57c0-11.09,3.92-22.18,12.4-29.36,10.44-10.44,26.75-15.65,48.27-15.65a112.76,112.76,0,0,1,25.45,2.6,259.77,259.77,0,0,1,29.36,9.79,31.39,31.39,0,0,0,7.17,2.61,8,8,0,0,0,5.22-2.61Z"/><path class="cls-5" d="M1433.34,168.92H1369.4l-9.13,19.57a11,11,0,0,0-2,6.52,8.36,8.36,0,0,0,7.18,6.53v3.26h-46.32v-3.26a19.8,19.8,0,0,0,6.52-2.61,53.81,53.81,0,0,0,5.22-7.83L1383.1,82.8a32,32,0,0,0,2.61-8.48,7.66,7.66,0,0,0-5.87-7.18V63.23h50.23v3.26a5.85,5.85,0,0,0-5.87,5.87,14.94,14.94,0,0,0,2,7.18l53.5,109a39,39,0,0,0,5.87,9.79,10.51,10.51,0,0,0,7.17,3.26v3.26h-52.19v-3.26c3.92,0,6.53-2.61,7.18-6.53h0a12.56,12.56,0,0,0-2-6.52Zm-8.48-19.57L1402,99.11l-23.48,50.24Z"/></g></g></svg>